PathFileType	4	(X/Y/Z)	C:/Users/beibeiliu/ov580/test_trc/capture2\sequence.5_training_dense_right.trc
DataRate	CameraRate	NumFrames	NumMarkers	Units	OrigDataRate	OrigDataStartFrame	OrigNumFrames
120	120	20	19	mm	120	263	350
Frame#	Time	ThumbCMC			ThumbMCP			ThumbIP			ThumbTip			IndexMCP			IndexPIP			IndexTip			MiddleMCP			MiddlePIP			MiddleTip			RingMCP			RingPIP			RingTip			PinkyMCP			PinkyPIP			PinkyTip			BackHand1			BackHand2			BackHand3	
		X0	Y0	Z0	X1	Y1	Z1	X2	Y2	Z2	X3	Y3	Z3	X4	Y4	Z4	X5	Y5	Z5	X6	Y6	Z6	X7	Y7	Z7	X8	Y8	Z8	X9	Y9	Z9	X10	Y10	Z10	X11	Y11	Z11	X12	Y12	Z12	X13	Y13	Z13	X14	Y14	Z14	X15	Y15	Z15	X16	Y16	Z16	X17	Y17	Z17	X18	Y18	Z18	
262	2.18333	118.289	-27.6917	-23.8619	134.887	-41.3647	-46.9809	139.342	-45.4047	-76.2343	146.637	-32.7031	-99.1221	106.084	-17.5536	-94.9206	118.335	-25.9544	-114.04	135.601	-35.4067	-133.422	128.664	-0.395391	-95.7751	154.761	-19.8106	-92.6992	151.648	-19.2488	-57.7749	144.39	8.56157	-87.7448	163.789	-12.7195	-74.7642	150.895	-6.92891	-42.9177	156.117	19.8104	-77.8296	169.915	-1.87064	-64.4495	153.229	0.841275	-38.2161	121.845	36.0952	-41.0137	120.287	34.7999	-11.4845	100.825	8.95474	-29.0774	
263	2.19167	118.436	-26.4531	-26.0039	133.54	-39.7853	-50.4848	139.29	-40.6584	-80.8472	146.472	-31.4909	-101.32	103.056	-14.4424	-95.0146	112.018	-26.0885	-116.994	126.883	-32.0906	-134.951	127.141	1.15097	-94.9238	151.809	-18.3366	-95.997	149.236	-22.0726	-57.9263	144.53	7.99618	-89.4127	166.733	-10.5978	-75.9399	153.449	-6.95274	-45.0526	156.595	21.7222	-78.549	169.328	-1.55217	-64.0207	151.88	-0.588261	-38.1547	120.573	34.9498	-42.3591	120.74	34.3434	-11.1163	102.988	7.78958	-26.3089	
264	2.2	118.098	-27.5098	-22.3238	133.713	-37.8575	-49.4527	139.193	-39.3086	-81.9334	147.644	-27.7409	-98.9875	101.57	-8.339	-96.0747	106.663	-18.7359	-116.974	120.755	-22.1648	-139.355	128.133	2.82375	-96.7606	153.129	-17.0457	-95.9449	148.879	-17.8631	-57.1435	146.509	12.332	-89.0887	163.211	-12.1689	-76.7662	150.009	-4.3694	-44.2253	155.642	21.2631	-78.559	168.66	-2.37229	-64.6671	147.48	2.2931	-39.2075	124.25	38.8906	-41.8403	122.73	34.2192	-13.8781	103.441	10.297	-27.0207	
265	2.20833	118.099	-21.3861	-27.1577	132.093	-36.014	-54.0959	137.913	-38.5202	-83.9019	147.09	-25.6578	-105.142	99.8253	-1.46782	-94.5617	102.073	-9.27824	-118.582	110.658	-14.0341	-144.539	128.411	3.27477	-99.7557	150.816	-15.7394	-96.9467	150.124	-14.9119	-59.8932	146.476	10.5021	-89.5455	165.734	-10.5565	-74.3971	151.931	-6.96657	-47.3007	160.65	21.8702	-80.6128	169.629	-0.52539	-66.594	150.618	6.5544	-38.4434	125.261	39.4518	-47.0283	123.735	36.5763	-10.2919	102.204	12.6434	-28.3964	
266	2.21667	116.455	-23.1346	-29.1605	132.398	-33.4017	-53.8151	136.92	-33.932	-81.1054	146.231	-24.2164	-106.868	98.4043	3.77171	-91.0572	97.5863	-3.70004	-121.174	103.296	-2.91436	-144.415	128.889	6.61258	-99.7684	150.718	-15.4306	-97.6321	147.369	-18.5638	-62.0816	144.354	11.7094	-90.7303	165.764	-5.95621	-78.6988	149.839	-4.49888	-47.1242	155.702	24.9928	-78.7702	171.436	1.56479	-64.0685	147.406	3.98635	-39.5835	124.34	41.6945	-44.6896	126.18	37.5316	-15.4329	105.522	15.1823	-27.9213	
267	2.225	118.449	-18.0516	-26.3129	130.001	-30.8706	-56.5293	134.993	-32.807	-83.8037	144.041	-20.8263	-105.038	94.1997	3.74709	-92.2799	96.6045	5.65312	-118.267	98.0538	6.75731	-148.339	125.523	7.9948	-100.188	149.835	-11.3227	-99.1196	148.448	-15.7317	-64.0819	145.604	15.2735	-92.4523	160.707	-8.38084	-79.6152	146.155	-4.11437	-48.0776	156.748	26.1304	-79.8366	170.495	3.06291	-66.9997	147.719	7.9494	-40.412	124.896	43.8692	-47.6127	125.402	40.6018	-15.0096	103.579	16.9882	-32.1532	
268	2.23333	115.431	-19.07	-26.5255	127.478	-32.5064	-59.482	132.977	-31.3241	-82.9714	140.668	-18.2689	-109.645	94.7945	12.9664	-95.8567	91.8107	9.21657	-120.838	93.1727	13.3442	-145.027	126.463	13.2015	-100.662	146.105	-9.10347	-102.937	148.04	-10.6381	-63.2596	144.563	16.6926	-93.7614	159.665	-6.62095	-80.8362	146.773	-3.66468	-51.0563	158.789	29.2477	-81.2224	167.509	2.75178	-66.2342	149.374	10.2529	-38.904	124.539	43.9788	-47.5701	129.166	41.1949	-12.8977	103.209	17.2593	-27.3277	
269	2.24167	115.334	-14.4374	-30.234	124.624	-27.9822	-59.0732	130.16	-29.1267	-86.3267	138.627	-16.679	-108.283	92.1859	13.2288	-93.2827	92.243	17.258	-120.877	93.4905	22.5152	-142.312	122.32	15.0008	-99.0227	149.133	-6.4058	-101.728	147.362	-9.72641	-64.0023	144.074	22.5407	-91.5302	159.803	-3.28266	-83.9267	148.079	-3.30426	-52.5442	160.475	30.7682	-81.6376	167.416	5.27758	-67.2455	149.441	12.2799	-40.9342	123.511	46.4248	-46.3768	125.251	42.2976	-15.4345	101.413	19.6194	-29.5319	
270	2.25	109.151	-15.7991	-30.9274	120.716	-29.4801	-58.8693	127.093	-25.7787	-83.8011	136.636	-12.1713	-105.626	92.9129	20.8894	-92.918	91.49	23.6949	-120.203	90.6997	28.9262	-141.859	121.48	18.0188	-100.498	145.425	-2.97263	-104.571	142.196	-12.7992	-66.2078	143.918	22.6926	-92.4435	156.532	-4.0719	-81.2733	143.488	-0.523485	-50.4299	158.086	33.4629	-81.2202	167.589	7.41991	-68.8625	146.299	10.7262	-45.2286	124.838	46.5697	-42.444	123.498	42.0057	-11.1355	100.912	24.4166	-26.7965	
271	2.25833	107.725	-13.478	-30.1312	117.345	-27.3537	-60.5452	122.914	-26.4115	-87.3206	133.229	-8.97039	-107.465	91.052	22.5043	-92.0859	88.1156	26.3021	-118.163	88.9972	34.8773	-145.52	121.146	21.7901	-99.6126	144.053	-0.168283	-105.594	144.042	-9.14366	-69.6874	141.536	26.5653	-91.4265	158.756	0.42728	-81.8536	144.275	-0.060663	-52.2851	155.165	33.8999	-80.956	163.921	6.76092	-67.7117	144.905	10.1097	-44.158	121.569	50.1308	-45.8941	128.262	44.8402	-10.0317	98.4191	26.1604	-28.1561	
272	2.26667	105.822	-9.70891	-33.0115	115.329	-21.4421	-60.4516	120.626	-18.8843	-87.9949	130.938	-9.20622	-106.164	88.8175	24.3446	-90.9287	88.1044	31.4823	-117.229	86.4032	37.2008	-140.457	123.39	26.2202	-101.825	142.976	0.433118	-104.858	139.647	-6.99444	-66.4904	138.892	28.2393	-91.4079	157.671	0.492635	-82.1611	143.868	0.714174	-54.0319	157.357	32.9269	-82.3116	163.703	7.78817	-67.7652	144.736	15.0425	-42.286	123.064	50.016	-44.751	124.065	47.426	-12.7882	101.956	30.891	-28.5945	
273	2.275	103.741	-8.8941	-29.9253	113.168	-18.2695	-60.8532	117.808	-22.2753	-86.4947	127.844	-8.6786	-109.281	88.741	27.8769	-90.4995	85.4326	30.9869	-115.629	86.9486	39.0005	-140.379	121.157	27.943	-99.2123	141.123	-0.413782	-103.172	139.612	-7.36512	-69.3117	142.005	27.2587	-92.2973	155.087	1.89726	-82.5151	138.675	1.88191	-52.2367	156.866	36.1958	-80.4859	160.46	7.96238	-72.0424	145.326	11.4016	-43.9356	120.817	51.2017	-40.8661	124.424	45.8847	-14.4703	99.5931	31.6563	-32.1063	
274	2.28333	103.319	-7.25876	-27.9613	111.505	-19.9592	-57.1585	115.959	-19.4993	-90.6553	128.042	-6.3538	-107.112	85.0789	28.0433	-94.4196	85.0516	32.2574	-117.331	81.1267	36.7086	-140.899	118.638	24.3867	-101.843	139.017	0.362545	-102.353	135.117	-8.39101	-67.0916	141.495	26.8338	-94.059	150.507	2.43228	-85.7068	139.514	3.72475	-51.0323	155.599	37.4681	-79.792	160.48	8.18928	-69.2551	144.786	14.9171	-42.4528	119.08	53.0658	-42.544	125.044	49.3704	-8.73559	99.6846	32.4009	-30.6268	
275	2.29167	102.588	-5.74282	-30.9838	110.536	-20.7997	-61.9836	117.315	-15.4916	-87.6281	127.314	-6.20032	-108.754	87.2422	29.3912	-91.6185	83.1836	30.3116	-119.751	82.5895	34.8045	-146.681	119.477	28.9868	-100.133	137.258	1.61445	-102.48	136.507	-5.05307	-69.1884	138.264	32.3875	-90.8091	152.763	4.66179	-82.7628	138.744	2.76998	-53.9557	153.969	34.7301	-81.9312	155.394	9.19837	-69.7178	141.822	13.8277	-42.3781	122.102	55.4255	-46.3431	120.724	48.5101	-11.4729	99.2681	33.2104	-29.2207	
276	2.3	102.465	-5.60514	-28.5212	110.508	-21.3742	-60.2458	116.018	-21.1982	-88.5015	127.619	-6.41219	-109.799	86.0459	27.9471	-92.5352	87.7741	29.0912	-119.723	87.1816	29.1813	-148.736	114.495	27.5955	-98.2547	137.239	2.11542	-101.887	137.134	-3.48046	-68.2254	137.221	27.6272	-93.5769	149.015	2.2721	-81.1192	139.013	4.08743	-52.9188	148.522	34.8615	-81.924	153.68	9.54487	-69.1011	139.907	15.1393	-40.8151	118.557	54.1065	-46.6159	123.537	49.9197	-10.9032	97.4653	34.2599	-31.0774	
277	2.30833	101.611	-2.44204	-33.9113	110.382	-16.2259	-60.9483	116.05	-17.8183	-90.0953	127.336	-6.67221	-105.348	87.587	26.9596	-97.6802	88.3002	22.4075	-121.69	95.9688	23.777	-151.096	116.003	28.9015	-99.684	135.363	3.84402	-104.047	133.826	-0.786954	-63.9842	135.382	27.5076	-93.2568	150.61	5.1177	-83.184	133.135	5.0768	-51.4107	149.948	37.1824	-80.2714	156.361	10.6507	-65.8707	136.203	17.9562	-43.2923	118.578	55.9431	-45.9669	119.542	50.8424	-11.2057	91.9552	33.2435	-30.9854	
278	2.31667	98.859	-4.60718	-33.4338	109.401	-14.9517	-62.635	115.01	-17.0224	-89.8589	126.648	-3.92653	-109.847	86.4854	24.1326	-98.6648	91.951	18.8089	-124.831	100.924	17.1974	-146.803	118.211	29.616	-100.758	133.535	3.61675	-105.305	132.648	-4.69841	-68.3679	134.789	27.6692	-93.8283	148.487	3.94228	-82.9957	135.484	7.12333	-52.1733	149.691	38.3377	-80.8047	158.085	11.8447	-68.2413	135.704	19.8837	-40.4769	118.49	56.1011	-46.5444	121.213	53.6526	-11.2284	92.0126	33.616	-31.6974	
279	2.325	98.7436	-2.42765	-31.8543	108.224	-16.3202	-61.3511	112.39	-18.5391	-89.1324	123.3	-5.40004	-108.109	90.3795	26.1659	-99.9121	96.1558	17.57	-125.746	101.275	10.4577	-146.718	116.601	30.7322	-100.466	135.641	3.56814	-103.486	133.55	-3.65049	-69.6712	134.16	30.3114	-93.6917	148.37	4.83311	-83.4747	137.413	6.97038	-52.7219	152.578	39.4747	-80.8702	157.02	12.9595	-67.8972	134.903	19.0839	-42.2247	120.282	59.1253	-42.4888	117.631	52.7115	-13.6977	92.6026	37.5804	-30.9659	
280	2.33333	98.7414	-2.63895	-31.2447	108.134	-13.938	-60.111	113.451	-11.6275	-91.7414	123.05	-2.8886	-112.339	91.8922	26.9796	-99.609	96.5183	15.0774	-127.231	107.138	4.93958	-148.416	117.671	30.4795	-104.598	135.563	7.72553	-105.284	132.414	-0.585242	-67.1516	134.306	29.7147	-94.7006	146.461	6.22484	-86.2084	136.205	10.4909	-51.7258	148.923	41.3042	-81.533	155.984	13.1243	-67.9688	133.965	21.4965	-44.1381	117.681	59.348	-47.5531	119.581	54.492	-14.7562	92.9263	36.9321	-34.4104	
281	2.34167	98.1329	0.759303	-33.4579	107.43	-11.2909	-64.1723	112.864	-8.60783	-90.9997	121.694	-2.06462	-112.946	91.3422	27.1185	-99.4619	96.2554	14.2251	-125.261	109.852	7.14571	-145.696	116.527	34.446	-102.436	133.178	3.87358	-104.958	133.638	1.00056	-68.6984	136.312	36.4625	-92.2706	146.943	7.0026	-84.1151	132.195	11.9388	-53.416	148.992	41.7755	-82.0561	154.921	14.8015	-70.4571	136.345	24.3786	-41.0786	118.492	59.1749	-47.05	118.879	54.1587	-15.5479	92.1915	38.3521	-33.504	
